<?xml version="1.0" encoding="UTF-8"?>
<svg version="1.1" xmlns="http://www.w3.org/2000/svg" width="512" height="512">
<path d="M0 0 C36.3 0 72.6 0 110 0 C110.3125 37.25 110.3125 37.25 110.38793945 48.94238281 C110.42457214 52.44957592 110.42457214 52.44957592 110.4650116 55.95672607 C110.48099251 57.49948641 110.49139377 59.04231155 110.49711609 60.58514404 C110.55578388 74.57204328 111.28788281 87.05676936 121 98 C131.87292589 108.66604147 145.24185548 108.60357691 159.5 108.53125 C161.38606974 108.53395031 163.27213811 108.5378372 165.15820312 108.54284668 C169.09518801 108.54871638 173.03180784 108.54026084 176.96875 108.52148438 C181.98861763 108.49869639 187.0076295 108.51183312 192.02746582 108.53577423 C195.91738205 108.55030091 199.8070989 108.54559489 203.69702148 108.53526306 C205.54679468 108.53261472 207.3965866 108.53579809 209.24633789 108.54518127 C222.63325041 108.59820343 234.88440288 107.92312276 245 98 C255.30567391 86.38797306 255.45705685 72.94088025 255.51171875 58.203125 C255.52722483 56.70620343 255.54402868 55.20929474 255.56213379 53.71240234 C255.61956844 48.22507635 255.65209448 42.73751235 255.6875 37.25 C255.790625 24.9575 255.89375 12.665 256 0 C292.3 0 328.6 0 366 0 C365.80277344 14.07140625 365.60554688 28.1428125 365.40234375 42.640625 C365.41445522 52.89223643 365.45739265 63.12613018 365.67919922 73.37304688 C365.69381277 74.05789166 365.70842632 74.74273644 365.7234827 75.4483341 C366.70089294 120.01525706 370.83308679 164.41213275 374.75390625 208.796875 C374.89753504 210.42448875 374.89753504 210.42448875 375.04406542 212.08498359 C377.51736165 240.09181274 380.07412943 268.09081688 382.66040075 296.0874114 C384.16031923 312.33223918 385.63816172 328.57896945 387.10131836 344.82714844 C387.20560048 345.98511416 387.3098826 347.14307988 387.41732479 348.33613548 C387.94083572 354.15065155 388.4639564 359.96520265 388.98684037 365.77977514 C390.00029286 377.04922921 391.01557975 388.31851779 392.03196716 399.58770752 C392.12995464 400.67422463 392.22794211 401.76074174 392.3288989 402.88018361 C393.77079049 418.86314406 395.2253439 434.84491703 396.68934631 450.8258667 C396.7805402 451.821759 396.87173409 452.81765131 396.96569143 453.84372216 C397.8251937 463.2297626 398.68561642 472.61571577 399.5504705 482.00126474 C399.85621476 485.32167559 400.16093186 488.64218017 400.46541428 491.96270695 C400.60552374 493.48774277 400.74612721 495.01273329 400.88725991 496.53767475 C401.07812023 498.60007353 401.2673493 500.6626157 401.45618534 502.72520065 C401.56196496 503.87292096 401.66774458 505.02064126 401.77672964 506.20314097 C402 509 402 509 402 512 C257.46 512 112.92 512 -36 512 C-30.27309062 443.27708747 -30.27309062 443.27708747 -27.89804125 417.83405745 C-27.53316621 413.91700905 -27.17182641 409.99963429 -26.81030273 406.08227539 C-26.73487119 405.26497699 -26.65943964 404.44767859 -26.58172229 403.60561357 C-26.4273697 401.93310019 -26.27303051 400.26058557 -26.11870438 398.58806975 C-25.88534225 396.0601356 -25.65165172 393.53223197 -25.41789961 391.00433385 C-24.26469127 378.52677062 -23.12623962 366.04790278 -21.99517822 353.5683136 C-21.91153998 352.64562918 -21.82790173 351.72294476 -21.74172899 350.77230021 C-20.9690936 342.24719307 -20.19745428 333.72199597 -19.42692137 325.19669855 C-18.90520616 319.42446501 -18.38302852 313.65227349 -17.86035156 307.88012695 C-17.77372294 306.92337387 -17.68709431 305.96662078 -17.59784058 304.98087517 C-16.37879101 291.52613096 -15.1393304 278.07339767 -13.88434285 264.62196018 C-11.69869 241.19402173 -9.55506283 217.76261739 -7.484375 194.32421875 C-7.40393833 193.41488813 -7.32350167 192.5055575 -7.24062753 191.56867141 C-3.82337411 152.88534055 -0.62142075 114.24484166 0.14257812 75.40478516 C0.16764403 74.14781665 0.19270994 72.89084814 0.21853542 71.59578967 C0.64656344 47.72647431 0.22560623 23.87457055 0 0 Z " fill="#56C125" transform="translate(73,0)"/>
<path d="M0 0 C36.3 0 72.6 0 110 0 C110.3125 37.25 110.3125 37.25 110.38793945 48.94238281 C110.42457214 52.44957592 110.42457214 52.44957592 110.4650116 55.95672607 C110.48099251 57.49948641 110.49139377 59.04231155 110.49711609 60.58514404 C110.55578388 74.57204328 111.28788281 87.05676936 121 98 C132.50921025 109.29021894 147.13263949 108.63915696 162.1875 108.75 C169.055625 108.8325 175.92375 108.915 183 109 C183 126.49 183 143.98 183 162 C176.565 162.61875 176.565 162.61875 170 163.25 C132.30897853 167.20163522 96.1439072 184.36379683 71.69360352 214.01196289 C55.44563877 234.45906578 44.66910042 257.26158394 40 283 C39.79375 284.09570312 39.5875 285.19140625 39.375 286.3203125 C36.87799173 301.26768145 37.51011363 316.1067908 40 331 C40.12987305 331.8979126 40.25974609 332.7958252 40.39355469 333.72094727 C41.46069147 340.77849845 43.12053338 347.33712853 45.5 354.0625 C45.84820801 355.04984131 46.19641602 356.03718262 46.55517578 357.05444336 C59.86253919 393.52810409 86.32860425 421.77679043 121 439 C131.73135876 443.90701909 142.87229118 447.78764979 154.4375 450.125 C155.19998047 450.29386719 155.96246094 450.46273438 156.74804688 450.63671875 C165.60198376 452.440167 173.69358579 452.48297699 183 453 C183 472.47 183 491.94 183 512 C110.73 512 38.46 512 -36 512 C-30.27309062 443.27708747 -30.27309062 443.27708747 -27.89804125 417.83405745 C-27.53316621 413.91700905 -27.17182641 409.99963429 -26.81030273 406.08227539 C-26.73487119 405.26497699 -26.65943964 404.44767859 -26.58172229 403.60561357 C-26.4273697 401.93310019 -26.27303051 400.26058557 -26.11870438 398.58806975 C-25.88534225 396.0601356 -25.65165172 393.53223197 -25.41789961 391.00433385 C-24.26469127 378.52677062 -23.12623962 366.04790278 -21.99517822 353.5683136 C-21.91153998 352.64562918 -21.82790173 351.72294476 -21.74172899 350.77230021 C-20.9690936 342.24719307 -20.19745428 333.72199597 -19.42692137 325.19669855 C-18.90520616 319.42446501 -18.38302852 313.65227349 -17.86035156 307.88012695 C-17.77372294 306.92337387 -17.68709431 305.96662078 -17.59784058 304.98087517 C-16.37879101 291.52613096 -15.1393304 278.07339767 -13.88434285 264.62196018 C-11.69869 241.19402173 -9.55506283 217.76261739 -7.484375 194.32421875 C-7.40393833 193.41488813 -7.32350167 192.5055575 -7.24062753 191.56867141 C-3.82337411 152.88534055 -0.62142075 114.24484166 0.14257812 75.40478516 C0.16764403 74.14781665 0.19270994 72.89084814 0.21853542 71.59578967 C0.64656344 47.72647431 0.22560623 23.87457055 0 0 Z " fill="#AAE132" transform="translate(73,0)"/>
<path d="M0 0 C23.36859938 19.2688451 40.05790118 45.63096787 44 76 C46.17504442 108.22670786 40.15423986 140.29023181 18.49609375 165.2890625 C17.67238281 166.18367187 16.84867188 167.07828125 16 168 C15.52578613 168.5165918 15.05157227 169.03318359 14.56298828 169.56542969 C-5.03511321 190.67300464 -32.09709798 205.36845861 -61.25976562 207.20532227 C-64.75931628 207.30322755 -68.24913512 207.32916965 -71.75 207.3125 C-72.98919189 207.30686035 -74.22838379 207.3012207 -75.50512695 207.29541016 C-84.38283704 207.17763926 -92.45836693 206.58099517 -101 204 C-101.99700928 203.70198486 -101.99700928 203.70198486 -103.01416016 203.39794922 C-116.59993317 199.24094556 -128.96760245 193.3365303 -140.3125 184.75 C-141.13089355 184.1317334 -141.13089355 184.1317334 -141.96582031 183.50097656 C-147.36139538 179.23366158 -147.36139538 179.23366158 -148 176 C-146.98578374 173.28432243 -145.92990309 170.96661694 -144.5625 168.4375 C-144.19068604 167.72585693 -143.81887207 167.01421387 -143.43579102 166.28100586 C-138.45326315 156.87922931 -132.70855202 148.25824793 -126 140 C-122.98221888 140.60223264 -120.99993098 141.54171556 -118.5 143.3125 C-106.65647819 150.77435257 -92.65592468 151.93934661 -79.0625 149.25 C-77.69959506 148.86287136 -76.34513273 148.44496786 -75 148 C-74.15695313 147.75507813 -73.31390625 147.51015625 -72.4453125 147.2578125 C-64.72251121 144.78564098 -58.53046963 140.70955971 -52 136 C-51.34112793 135.52884766 -50.68225586 135.05769531 -50.00341797 134.57226562 C-45.43562607 131.30462608 -40.88803273 128.00981812 -36.34667969 124.70556641 C-32.57095485 121.96137022 -28.78507536 119.23127597 -25 116.5 C-23.51298668 115.42582853 -22.02600763 114.35160961 -20.5390625 113.27734375 C-17.41029499 111.01752711 -14.27985198 108.76005342 -11.1484375 106.50390625 C-10.34921875 105.92769531 -9.55 105.35148438 -8.7265625 104.7578125 C-7.21398684 103.66735098 -5.70099941 102.57746029 -4.1875 101.48828125 C-3.49398437 100.988125 -2.80046875 100.48796875 -2.0859375 99.97265625 C-1.41401367 99.48812988 -0.74208984 99.00360352 -0.04980469 98.50439453 C2.78930078 96.42071565 5.57247608 94.26542635 8.34912109 92.09936523 C10 91 10 91 12 91 C-0.62979818 68.1400653 -27.72336299 52.19061711 -51.984375 44.74609375 C-74.51434504 38.36184221 -98.59093431 41.62964606 -119 53 C-122.10619619 54.87114658 -125.09380503 56.8317061 -128 59 C-128.83402344 59.61359375 -129.66804688 60.2271875 -130.52734375 60.859375 C-138.62979048 67.87381545 -143.62969809 79.50740255 -145 90 C-145.36342296 97.3614279 -145.38017081 104.00824824 -143 111 C-142.4375 113.5 -142.4375 113.5 -143 116 C-144.47987702 117.67588722 -146.10749459 119.15028847 -147.7421875 120.67578125 C-156.54588461 129.73841063 -163.05186638 140.93885754 -169 152 C-172.38717435 148.14486077 -174.52238246 144.12846256 -176.5 139.4375 C-176.80260742 138.7264209 -177.10521484 138.0153418 -177.41699219 137.28271484 C-189.52887226 108.44397788 -190.50854459 77.48968772 -178.92285156 48.19238281 C-166.25199883 18.09072738 -142.56054111 -4.57659807 -112.48046875 -17.06152344 C-75.05870113 -31.21991662 -31.69716212 -24.19334415 0 0 Z " fill="#BFDDFD" transform="translate(327,216)"/>
<path d="M0 0 C0 9.9 0 19.8 0 30 C-2.908125 30.226875 -5.81625 30.45375 -8.8125 30.6875 C-40.33365981 33.69481 -68.2549976 47.97001281 -89 72 C-107.71723668 94.99927918 -117.6106997 125.36384028 -115 155 C-113.10372955 172.49451631 -108.03214238 188.85906489 -99 204 C-95.92757612 200.31309134 -93.33298577 196.44720383 -90.8125 192.375 C-86.20564286 185.06930285 -81.21819184 177.74708794 -74.7265625 171.98046875 C-72.79216184 170.15171813 -72.79216184 170.15171813 -72.79296875 167.74609375 C-72.92316406 166.98425781 -73.05335938 166.22242188 -73.1875 165.4375 C-73.30480469 164.67308594 -73.42210937 163.90867187 -73.54296875 163.12109375 C-73.99665755 160.82784946 -73.99665755 160.82784946 -75 158 C-76.06248172 142.65531213 -72.83997649 129.44801542 -63.25 117.25 C-51.89544374 104.92471743 -35.7692263 99.82590191 -20 96 C-18.79923828 95.69449219 -18.79923828 95.69449219 -17.57421875 95.3828125 C7.6698215 91.62876706 32.32171526 99.7907011 53 114 C56.81641006 116.84388858 60.42894847 119.85550592 64 123 C64.85207031 123.73089844 65.70414063 124.46179688 66.58203125 125.21484375 C72.45208783 130.34550764 78.31959181 135.73684508 83 142 C83 142.99 83 143.98 83 145 C81.63330078 146.32763672 81.63330078 146.32763672 79.6953125 147.6796875 C78.97569336 148.18975342 78.25607422 148.69981934 77.51464844 149.2253418 C76.72606445 149.769729 75.93748047 150.31411621 75.125 150.875 C73.46594638 152.04529021 71.80709792 153.21587132 70.1484375 154.38671875 C69.2934668 154.98532715 68.43849609 155.58393555 67.55761719 156.20068359 C63.59290916 158.9899064 59.67320139 161.84035731 55.75 164.6875 C49.95858389 168.87426039 44.15696345 173.046208 38.33154297 177.18554688 C35.05329339 179.51867305 31.79663095 181.87834376 28.5546875 184.26171875 C9.62141774 198.15074493 -6.7587472 207.44897748 -31 205 C-38.93445016 203.42092166 -45.72937849 200.01649721 -52 195 C-52.99 194.67 -53.98 194.34 -55 194 C-55.24492187 194.55042969 -55.48984375 195.10085938 -55.7421875 195.66796875 C-57.26111555 198.48411795 -59.13515589 200.80612841 -61.125 203.3125 C-64.67917036 207.92486526 -67.69124792 212.67850936 -70.4375 217.8125 C-70.7670166 218.42198486 -71.0965332 219.03146973 -71.43603516 219.65942383 C-73.54336759 223.71067414 -74.87965907 227.60308409 -76 232 C-54.12921177 251.60030385 -28.77882164 258.85499466 0 261 C0 270.9 0 280.8 0 291 C-40.07414915 292.65595658 -74.41901716 275.1798481 -103.46484375 248.7578125 C-130.6816509 222.64115748 -145.3067805 184.70323325 -146.21728516 147.4309082 C-146.68564839 112.62872371 -134.3012115 77.02877807 -111 51 C-110.14664063 50.01515625 -109.29328125 49.0303125 -108.4140625 48.015625 C-89.55938511 26.54006213 -64.42513984 11.75281039 -37 4 C-36.22269531 3.77957031 -35.44539063 3.55914062 -34.64453125 3.33203125 C-23.28372331 0.49715797 -11.64978135 0 0 0 Z " fill="#56C125" transform="translate(256,162)"/>
<path d="M0 0 C11.26530612 0 11.26530612 0 15.11328125 0.55078125 C16.38582764 0.73000122 16.38582764 0.73000122 17.68408203 0.9128418 C18.55145996 1.044729 19.41883789 1.17661621 20.3125 1.3125 C21.23401855 1.45147705 22.15553711 1.5904541 23.10498047 1.73364258 C25.73924593 2.14124395 28.36997352 2.56597435 31 3 C32.18207031 3.19335938 33.36414063 3.38671875 34.58203125 3.5859375 C68.50254591 10.29166184 100.31660478 34.18691056 120 62 C132.15742371 80.23416898 139.80541747 99.55155181 144 121 C144.36931641 122.86591797 144.36931641 122.86591797 144.74609375 124.76953125 C147.23100462 139.49048601 146.45067764 154.34131708 144 169 C143.87012695 169.8979126 143.74025391 170.7958252 143.60644531 171.72094727 C142.53929085 178.7786154 140.87899926 185.33689042 138.5 192.0625 C138.15324219 193.04766602 137.80648437 194.03283203 137.44921875 195.04785156 C132.31558418 209.13813656 125.41558518 222.29063768 116 234 C115.29230469 234.90878906 114.58460938 235.81757813 113.85546875 236.75390625 C90.50096141 266.16177101 56.64501314 285.40535349 19.4296875 290.6953125 C12.94298153 291.27158023 6.51060985 291.113228 0 291 C0 281.1 0 271.2 0 261 C2.619375 260.7525 5.23875 260.505 7.9375 260.25 C40.93565322 256.74836481 69.98021601 242.28590376 91.08984375 216.44140625 C92.84508839 214.01749698 94.44088822 211.55437002 96 209 C96.65484375 207.95457031 97.3096875 206.90914062 97.984375 205.83203125 C113.34283162 180.65168431 118.83980367 148.90527189 112.3125 120 C110.48693921 112.7748124 108.02477455 105.80574275 105 99 C104.52046875 97.89527344 104.0409375 96.79054688 103.546875 95.65234375 C90.41820433 67.38746296 66.67714286 48.07421928 37.9375 37.1875 C25.60705241 33.02614849 12.86587949 31.48014543 0 30 C0 20.1 0 10.2 0 0 Z " fill="#04995A" transform="translate(256,162)"/>
<path d="M0 0 C0 21.45 0 42.9 0 65 C-4.95 65.33 -9.9 65.66 -15 66 C-18.47083702 66.63220616 -21.73925011 67.28568647 -25.125 68.1875 C-26.39210815 68.51633179 -26.39210815 68.51633179 -27.68481445 68.85180664 C-38.42056262 71.76522529 -48.05818072 76.32856452 -57 83 C-57.83402344 83.61359375 -58.66804688 84.2271875 -59.52734375 84.859375 C-67.62979048 91.87381545 -72.62969809 103.50740255 -74 114 C-74.36342296 121.3614279 -74.38017081 128.00824824 -72 135 C-71.4375 137.5 -71.4375 137.5 -72 140 C-73.47987702 141.67588722 -75.10749459 143.15028847 -76.7421875 144.67578125 C-85.54588461 153.73841063 -92.05186638 164.93885754 -98 176 C-101.38717435 172.14486077 -103.52238246 168.12846256 -105.5 163.4375 C-105.80260742 162.7264209 -106.10521484 162.0153418 -106.41699219 161.28271484 C-118.52887226 132.44397788 -119.50854459 101.48968772 -107.92285156 72.19238281 C-95.25199883 42.09072738 -71.56054111 19.42340193 -41.48046875 6.93847656 C-27.78022925 1.75503949 -14.69812424 0 0 0 Z " fill="#EDF6FC" transform="translate(256,192)"/>
<path d="M0 0 C3.8065753 2.83310107 7.43721564 5.86682373 11 9 C7.78005787 10.07331404 5.8494816 9.75074048 2.55664062 9.28857422 C-36.61508882 4.86716625 -77.42730968 16.14426033 -108.40917969 40.68359375 C-112.27555977 43.8830292 -115.94166357 47.28948735 -119.57421875 50.75 C-122 53 -122 53 -125 55 C-129.57403931 41.65905201 -129.50193611 28.01315583 -123.67578125 15.0546875 C-116.25504101 0.75856326 -104.15242159 -8.66815538 -88.78955078 -13.72802734 C-83.56752611 -15.31081627 -78.30229674 -16.7135661 -73 -18 C-72.19949219 -18.20367187 -71.39898437 -18.40734375 -70.57421875 -18.6171875 C-45.39905266 -22.36099065 -20.59581658 -14.26261733 0 0 Z " fill="#ABE234" transform="translate(309,276)"/>
<path d="M0 0 C3.01778112 0.60223264 5.00006902 1.54171556 7.5 3.3125 C19.01933801 10.5701049 31.77743757 11.56454263 45.01171875 9.5390625 C47.02107486 9.08073003 49.01324404 8.54807061 51 8 C52.32 8 53.64 8 55 8 C55 27.47 55 46.94 55 67 C29.27750118 67 6.27824509 60.33436785 -14.3125 44.75 C-14.8580957 44.33782227 -15.40369141 43.92564453 -15.96582031 43.50097656 C-21.36139538 39.23366158 -21.36139538 39.23366158 -22 36 C-20.98578374 33.28432243 -19.92990309 30.96661694 -18.5625 28.4375 C-18.19068604 27.72585693 -17.81887207 27.01421387 -17.43579102 26.28100586 C-12.45326315 16.87922931 -6.70855202 8.25824793 0 0 Z " fill="#EDF6FC" transform="translate(201,356)"/>
<path d="M0 0 C2.02317948 0.00314685 4.04487268 -0.02032378 6.06787109 -0.0456543 C14.7054911 -0.04988428 22.47522932 0.97267461 30.79052734 3.31567383 C21.5427018 10.72168925 12.16318529 17.84456168 2.45288086 24.63085938 C-2.14204516 27.8441769 -6.68638883 31.11714697 -11.20703125 34.43408203 C-29.270832 47.65330934 -45.26811362 55.59800457 -68.20947266 53.31567383 C-76.78024707 51.6504948 -84.34256444 47.60210317 -91.20947266 42.31567383 C-74.38004743 21.50033211 -50.26506298 8.49045833 -24.36767578 2.80322266 C-22.96790627 2.48700776 -21.57469375 2.13954265 -20.19189453 1.75585938 C-13.512926 -0.00542907 -6.87853516 -0.02229537 0 0 Z " fill="#56C126" transform="translate(293.20947265625,313.684326171875)"/>
<path d="M0 0 C2.01617623 0.0107101 4.03145821 0.00004806 6.04760742 -0.01269531 C28.55393848 0.0315867 28.55393848 0.0315867 35.5612793 7.05371094 C36.22901367 7.78203125 36.89674805 8.51035156 37.5847168 9.26074219 C38.47932617 10.185 39.37393555 11.10925781 40.2956543 12.06152344 C47.5847168 19.73014527 47.5847168 19.73014527 47.5847168 23.26074219 C42.70950811 27.84415006 37.08324882 32.76393394 30.3112793 33.72558594 C26.49642899 33.36251037 23.20986509 32.46912495 19.5847168 31.26074219 C14.82064755 30.93687895 10.04613576 30.91752232 5.2722168 30.88574219 C4.58052399 30.88018311 3.88883118 30.87462402 3.17617798 30.86889648 C-8.91030029 30.8198989 -20.0225895 32.38691264 -31.66064453 35.80175781 C-33.4152832 36.26074219 -33.4152832 36.26074219 -35.4152832 36.26074219 C-35.4152832 26.03074219 -35.4152832 15.80074219 -35.4152832 5.26074219 C-23.03426389 1.88410056 -12.71688367 -0.08012577 0 0 Z " fill="#049959" transform="translate(291.415283203125,283.7392578125)"/>
<path d="M0 0 C0 14.19 0 28.38 0 43 C-10.07900639 48.0395032 -23.8924385 49.0263783 -34.96875 46.09375 C-41.99872615 43.70967113 -48.11836344 40.52792656 -54 36 C-43.43408715 22.9316341 -18.37568328 0 0 0 Z " fill="#AAE133" transform="translate(256,320)"/>
<path d="M0 0 C14.12456157 1.1770468 14.12456157 1.1770468 20.25 3.0625 C20.9625293 3.27874023 21.67505859 3.49498047 22.40917969 3.71777344 C38.02715534 8.70809179 51.55896577 17.46019207 64 28 C60.78282987 29.07239004 58.8832289 28.74358188 55.59619141 28.27978516 C49.81830166 27.6571162 43.99363696 27.71179491 38.1875 27.6875 C37.50312866 27.68355225 36.81875732 27.67960449 36.11364746 27.67553711 C25.88560319 27.64802146 16.28285685 28.51844603 6.359375 31.125 C3 32 3 32 0 32 C0 21.44 0 10.88 0 0 Z " fill="#56C126" transform="translate(256,257)"/>
</svg>
